<svg width="34" height="43" viewBox="0 0 34 43" fill="none" xmlns="http://www.w3.org/2000/svg">
<path fill-rule="evenodd" clip-rule="evenodd" d="M12.7986 0.249878C12.185 0.249878 11.6875 0.747339 11.6875 1.36099V3.53859C11.6875 3.59995 11.6378 3.6497 11.5764 3.6497H7.48611C6.87246 3.6497 6.375 4.14716 6.375 4.76081V7.63871C6.375 8.25236 6.87246 8.74982 7.48611 8.74982H26.5139C27.1276 8.74982 27.625 8.25236 27.625 7.63871V4.76081C27.625 4.14716 27.1276 3.6497 26.5139 3.6497H22.4236C22.3623 3.6497 22.3125 3.59995 22.3125 3.53859V1.36099C22.3125 0.747339 21.8151 0.249878 21.2014 0.249878H12.7986Z" fill="white"/>
<path fill-rule="evenodd" clip-rule="evenodd" d="M4.73547 6.62512V8.4007C4.73547 9.50527 5.6309 10.4007 6.73547 10.4007H27.2645C28.369 10.4007 29.2645 9.50527 29.2645 8.4007V6.62512H31.7778C33.0051 6.62512 34 7.62004 34 8.84734V40.5279C34 41.7552 33.0051 42.7501 31.7778 42.7501H2.22222C0.994923 42.7501 0 41.7552 0 40.5279V8.84734C0 7.62004 0.994923 6.62512 2.22222 6.62512H4.73547ZM14.125 19.3749C14.125 18.9607 14.4608 18.6249 14.875 18.6249H27.625C28.0392 18.6249 28.375 18.9607 28.375 19.3749C28.375 19.7891 28.0392 20.1249 27.625 20.1249H14.875C14.4608 20.1249 14.125 19.7891 14.125 19.3749ZM6.375 18.6249C5.96079 18.6249 5.625 18.9607 5.625 19.3749C5.625 19.7891 5.96079 20.1249 6.375 20.1249H8.5C8.91421 20.1249 9.25 19.7891 9.25 19.3749C9.25 18.9607 8.91421 18.6249 8.5 18.6249H6.375ZM14.125 25.7499C14.125 25.3357 14.4608 24.9999 14.875 24.9999H27.625C28.0392 24.9999 28.375 25.3357 28.375 25.7499C28.375 26.1641 28.0392 26.4999 27.625 26.4999H14.875C14.4608 26.4999 14.125 26.1641 14.125 25.7499ZM6.375 24.9999C5.96079 24.9999 5.625 25.3357 5.625 25.7499C5.625 26.1641 5.96079 26.4999 6.375 26.4999H8.5C8.91421 26.4999 9.25 26.1641 9.25 25.7499C9.25 25.3357 8.91421 24.9999 8.5 24.9999H6.375ZM14.125 32.1249C14.125 31.7107 14.4608 31.3749 14.875 31.3749H27.625C28.0392 31.3749 28.375 31.7107 28.375 32.1249C28.375 32.5391 28.0392 32.8749 27.625 32.8749H14.875C14.4608 32.8749 14.125 32.5391 14.125 32.1249ZM6.375 31.3749C5.96079 31.3749 5.625 31.7107 5.625 32.1249C5.625 32.5391 5.96079 32.8749 6.375 32.8749H8.5C8.91421 32.8749 9.25 32.5391 9.25 32.1249C9.25 31.7107 8.91421 31.3749 8.5 31.3749H6.375Z" fill="white"/>
</svg>
