<svg width="79" height="61" viewBox="0 0 79 61" fill="none" xmlns="http://www.w3.org/2000/svg">
<path d="M13.5 2C13.5 1.17157 12.8284 0.5 12 0.5C11.1716 0.5 10.5 1.17157 10.5 2L13.5 2ZM10.9393 60.0607C11.5251 60.6464 12.4749 60.6464 13.0607 60.0607L22.6066 50.5147C23.1924 49.9289 23.1924 48.9792 22.6066 48.3934C22.0208 47.8076 21.0711 47.8076 20.4853 48.3934L12 56.8787L3.51472 48.3934C2.92893 47.8076 1.97918 47.8076 1.3934 48.3934C0.807612 48.9792 0.807612 49.9289 1.3934 50.5147L10.9393 60.0607ZM10.5 2L10.5 59L13.5 59L13.5 2L10.5 2Z" fill="white"/>
<rect x="25.8314" y="2" width="53.1686" height="5" rx="2.5" fill="white"/>
<rect x="25.8314" y="15" width="53" height="5" rx="2.5" fill="white"/>
<rect x="25.8314" y="28" width="35" height="5" rx="2.5" fill="white"/>
<rect x="25.8314" y="41" width="25" height="5" rx="2.5" fill="white"/>
</svg>
