<svg width="80" height="61" viewBox="0 0 80 61" fill="none" xmlns="http://www.w3.org/2000/svg">
<path d="M13.5 59C13.5 59.8284 12.8284 60.5 12 60.5C11.1716 60.5 10.5 59.8284 10.5 59L13.5 59ZM10.9393 0.93934C11.5251 0.353553 12.4749 0.353553 13.0607 0.93934L22.6066 10.4853C23.1924 11.0711 23.1924 12.0208 22.6066 12.6066C22.0208 13.1924 21.0711 13.1924 20.4853 12.6066L12 4.12132L3.51472 12.6066C2.92893 13.1924 1.97918 13.1924 1.3934 12.6066C0.807612 12.0208 0.807612 11.0711 1.3934 10.4853L10.9393 0.93934ZM10.5 59L10.5 2L13.5 2L13.5 59L10.5 59Z" fill="white"/>
<rect x="26.0378" y="2" width="53.9622" height="5" rx="2.5" fill="white"/>
<rect x="26.0378" y="15" width="53" height="5" rx="2.5" fill="white"/>
<rect x="26.0378" y="28" width="35" height="5" rx="2.5" fill="white"/>
<rect x="26.0378" y="41" width="25" height="5" rx="2.5" fill="white"/>
</svg>
