<svg width="80" height="61" viewBox="0 0 80 61" fill="none" xmlns="http://www.w3.org/2000/svg">
<g clip-path="url(#clip0_73_10)">
<path d="M13.5 2C13.5 1.1716 12.8284 0.5 12 0.5C11.1716 0.5 10.5 1.1716 10.5 2H13.5ZM10.9393 60.0607C11.5251 60.6464 12.4749 60.6464 13.0607 60.0607L22.6066 50.5147C23.1924 49.9289 23.1924 48.9792 22.6066 48.3934C22.0208 47.8076 21.0711 47.8076 20.4853 48.3934L12 56.8787L3.51476 48.3934C2.92897 47.8076 1.97922 47.8076 1.39344 48.3934C0.807655 48.9792 0.807655 49.9289 1.39344 50.5147L10.9393 60.0607ZM10.5 2V59H13.5V2H10.5Z" fill="#B5B5FF"/>
<path d="M77.5 2H28.5378C27.1571 2 26.0378 3.11929 26.0378 4.5C26.0378 5.88071 27.1571 7 28.5378 7H77.5C78.8808 7 80 5.88071 80 4.5C80 3.11929 78.8808 2 77.5 2Z" fill="#B5B5FF"/>
<path d="M76.5378 15H28.5378C27.1571 15 26.0378 16.1193 26.0378 17.5C26.0378 18.8807 27.1571 20 28.5378 20H76.5378C77.9186 20 79.0378 18.8807 79.0378 17.5C79.0378 16.1193 77.9186 15 76.5378 15Z" fill="#B5B5FF"/>
<path d="M58.5378 28H28.5378C27.1571 28 26.0378 29.1193 26.0378 30.5C26.0378 31.8807 27.1571 33 28.5378 33H58.5378C59.9186 33 61.0378 31.8807 61.0378 30.5C61.0378 29.1193 59.9186 28 58.5378 28Z" fill="#B5B5FF"/>
<path d="M48.5378 41H28.5378C27.1571 41 26.0378 42.1193 26.0378 43.5C26.0378 44.8807 27.1571 46 28.5378 46H48.5378C49.9186 46 51.0378 44.8807 51.0378 43.5C51.0378 42.1193 49.9186 41 48.5378 41Z" fill="#B5B5FF"/>
</g>
<defs>
<clipPath id="clip0_73_10">
<rect width="80" height="61" fill="white"/>
</clipPath>
</defs>
</svg>
